<svg xmlns="http://www.w3.org/2000/svg" viewBox="0 0 120 120"><defs><style>.cls-1{isolation:isolate;}.cls-2{fill:#1a0a04;opacity:0.35;}.cls-10,.cls-100,.cls-101,.cls-102,.cls-103,.cls-104,.cls-105,.cls-106,.cls-107,.cls-108,.cls-109,.cls-11,.cls-110,.cls-111,.cls-112,.cls-113,.cls-114,.cls-115,.cls-116,.cls-117,.cls-118,.cls-119,.cls-12,.cls-120,.cls-121,.cls-122,.cls-123,.cls-124,.cls-125,.cls-126,.cls-127,.cls-128,.cls-129,.cls-13,.cls-130,.cls-131,.cls-132,.cls-133,.cls-134,.cls-135,.cls-136,.cls-137,.cls-138,.cls-139,.cls-14,.cls-140,.cls-141,.cls-142,.cls-143,.cls-144,.cls-145,.cls-146,.cls-147,.cls-148,.cls-149,.cls-15,.cls-150,.cls-151,.cls-152,.cls-153,.cls-154,.cls-155,.cls-156,.cls-157,.cls-158,.cls-159,.cls-16,.cls-160,.cls-161,.cls-162,.cls-163,.cls-164,.cls-165,.cls-166,.cls-167,.cls-168,.cls-169,.cls-17,.cls-170,.cls-171,.cls-172,.cls-173,.cls-174,.cls-175,.cls-176,.cls-177,.cls-178,.cls-179,.cls-18,.cls-180,.cls-181,.cls-182,.cls-183,.cls-184,.cls-185,.cls-186,.cls-187,.cls-188,.cls-189,.cls-19,.cls-190,.cls-191,.cls-192,.cls-193,.cls-194,.cls-195,.cls-196,.cls-197,.cls-198,.cls-199,.cls-2,.cls-20,.cls-200,.cls-201,.cls-202,.cls-203,.cls-204,.cls-205,.cls-206,.cls-207,.cls-208,.cls-209,.cls-21,.cls-210,.cls-211,.cls-212,.cls-213,.cls-214,.cls-215,.cls-216,.cls-217,.cls-218,.cls-219,.cls-22,.cls-220,.cls-221,.cls-222,.cls-223,.cls-224,.cls-225,.cls-226,.cls-227,.cls-228,.cls-229,.cls-23,.cls-230,.cls-231,.cls-232,.cls-233,.cls-234,.cls-235,.cls-236,.cls-237,.cls-238,.cls-239,.cls-24,.cls-240,.cls-241,.cls-242,.cls-243,.cls-244,.cls-245,.cls-246,.cls-247,.cls-248,.cls-249,.cls-25,.cls-250,.cls-251,.cls-252,.cls-253,.cls-254,.cls-255,.cls-256,.cls-257,.cls-258,.cls-259,.cls-26,.cls-260,.cls-261,.cls-262,.cls-263,.cls-264,.cls-265,.cls-266,.cls-267,.cls-268,.cls-269,.cls-27,.cls-270,.cls-271,.cls-272,.cls-273,.cls-274,.cls-28,.cls-29,.cls-3,.cls-30,.cls-31,.cls-32,.cls-33,.cls-34,.cls-35,.cls-36,.cls-37,.cls-38,.cls-39,.cls-4,.cls-40,.cls-41,.cls-42,.cls-43,.cls-44,.cls-45,.cls-46,.cls-47,.cls-48,.cls-49,.cls-5,.cls-50,.cls-51,.cls-52,.cls-53,.cls-54,.cls-55,.cls-56,.cls-57,.cls-58,.cls-59,.cls-6,.cls-60,.cls-61,.cls-62,.cls-63,.cls-64,.cls-65,.cls-66,.cls-67,.cls-68,.cls-69,.cls-7,.cls-70,.cls-71,.cls-72,.cls-73,.cls-74,.cls-75,.cls-76,.cls-77,.cls-78,.cls-79,.cls-8,.cls-80,.cls-81,.cls-82,.cls-83,.cls-84,.cls-85,.cls-86,.cls-87,.cls-88,.cls-89,.cls-9,.cls-90,.cls-91,.cls-92,.cls-93,.cls-94,.cls-95,.cls-96,.cls-97,.cls-98,.cls-99{mix-blend-mode:screen;}.cls-3{fill:#05040a;opacity:0.24;}.cls-4{fill:#1b0f0c;opacity:0.23;}.cls-5{fill:#14171e;opacity:0.32;}.cls-6{fill:#060610;opacity:0.13;}.cls-7{fill:#0b0813;opacity:0.19;}.cls-8{fill:#05040c;opacity:0.27;}.cls-9{fill:#251a17;opacity:0.27;}.cls-10{fill:#2f1611;opacity:0.43;}.cls-11{fill:#05050d;opacity:0.25;}.cls-12{fill:#1c1922;opacity:0.39;}.cls-13{fill:#101115;opacity:0.25;}.cls-14{fill:#311d16;opacity:0.4;}.cls-15,.cls-27{fill:#170d07;}.cls-15{opacity:0.15;}.cls-16{fill:#130b07;opacity:0.38;}.cls-17{fill:#190e06;opacity:0.44;}.cls-18{fill:#231913;opacity:0.31;}.cls-19{fill:#24130e;opacity:0.37;}.cls-20{fill:#100702;opacity:0.41;}.cls-21{fill:#25140e;opacity:0.37;}.cls-22{fill:#120603;opacity:0.11;}.cls-23{fill:#180b07;opacity:0.17;}.cls-24{fill:#1f1713;opacity:0.46;}.cls-25{fill:#1f1712;opacity:0.47;}.cls-26{fill:#0a0a12;opacity:0.49;}.cls-27{opacity:0.35;}.cls-28{fill:#130a05;opacity:0.24;}.cls-29{fill:#180e07;opacity:0.31;}.cls-30{fill:#1c100a;opacity:0.22;}.cls-31{fill:#1e0e0a;opacity:0.16;}.cls-32{fill:#200c08;opacity:0.24;}.cls-33{fill:#381e16;opacity:0.5;}.cls-34,.cls-45{fill:#21110b;}.cls-34{opacity:0.17;}.cls-35{fill:#1a120e;opacity:0.1;}.cls-36{fill:#180a05;opacity:0.17;}.cls-37{fill:#170b05;opacity:0.3;}.cls-38{fill:#1b0d08;opacity:0.35;}.cls-39{fill:#261a14;opacity:0.28;}.cls-40{fill:#281a12;opacity:0.35;}.cls-41{fill:#08070f;opacity:0.39;}.cls-42{fill:#341b10;opacity:0.12;}.cls-43{fill:#25110a;opacity:0.25;}.cls-44,.cls-93{fill:#21150c;}.cls-44{opacity:0.27;}.cls-45{opacity:0.5;}.cls-46{fill:#170f09;opacity:0.26;}.cls-47{fill:#3c251c;opacity:0.14;}.cls-48{fill:#1e120c;opacity:0.1;}.cls-49{fill:#160c06;opacity:0.4;}.cls-50{fill:#35241d;opacity:0.19;}.cls-51{fill:#402013;opacity:0.1;}.cls-52{fill:#170a06;opacity:0.48;}.cls-53{fill:#100804;opacity:0.13;}.cls-54{fill:#1e100b;opacity:0.23;}.cls-55{fill:#5c3828;opacity:0.26;}.cls-56{fill:#170b08;opacity:0.41;}.cls-57{fill:#1d0d07;opacity:0.41;}.cls-58{fill:#2e1d16;opacity:0.24;}.cls-59{fill:#1a110c;opacity:0.23;}.cls-60{fill:#2e231b;opacity:0.33;}.cls-61{fill:#180f0a;opacity:0.48;}.cls-62{fill:#583c27;opacity:0.25;}.cls-63{fill:#502e17;opacity:0.39;}.cls-64{fill:#23120c;opacity:0.3;}.cls-65{fill:#35150b;opacity:0.48;}.cls-66{fill:#200f08;opacity:0.26;}.cls-67{fill:#462717;opacity:0.42;}.cls-68{fill:#5b3225;opacity:0.49;}.cls-69{fill:#2f0e09;opacity:0.48;}.cls-70{fill:#3e1e11;opacity:0.19;}.cls-71{fill:#1f130d;opacity:0.38;}.cls-72{fill:#5b301e;opacity:0.41;}.cls-73{fill:#31150b;opacity:0.17;}.cls-74{fill:#5c3825;opacity:0.18;}.cls-75{fill:#36150b;opacity:0.16;}.cls-76{fill:#1e1109;opacity:0.3;}.cls-77{fill:#4e2e22;opacity:0.5;}.cls-78{fill:#431a0e;opacity:0.13;}.cls-79{fill:#321409;opacity:0.45;}.cls-80{fill:#602e1a;opacity:0.38;}.cls-81{fill:#33150a;opacity:0.14;}.cls-82{fill:#2d160d;opacity:0.14;}.cls-83{fill:#5c4032;opacity:0.21;}.cls-84{fill:#36190e;opacity:0.21;}.cls-85{fill:#1b110b;opacity:0.38;}.cls-86{fill:#36180d;opacity:0.17;}.cls-87{fill:#402a25;opacity:0.18;}.cls-88{fill:#8a3c28;opacity:0.45;}.cls-89{fill:#20130b;opacity:0.14;}.cls-90{fill:#201a10;opacity:0.14;}.cls-91{fill:#522010;opacity:0.19;}.cls-92{fill:#30140a;opacity:0.19;}.cls-93{opacity:0.39;}.cls-94{fill:#391f13;opacity:0.16;}.cls-95{fill:#31180d;opacity:0.41;}.cls-96{fill:#552015;opacity:0.19;}.cls-97{fill:#291e16;opacity:0.19;}.cls-98{fill:#412419;opacity:0.26;}.cls-99{fill:#3c190f;opacity:0.24;}.cls-100{fill:#652814;opacity:0.37;}.cls-101{fill:#502b1f;opacity:0.2;}.cls-102{fill:#501b0c;opacity:0.25;}.cls-103{fill:#702d17;opacity:0.16;}.cls-104{fill:#452e23;opacity:0.41;}.cls-105{fill:#5f2c1a;opacity:0.35;}.cls-106{fill:#642b19;opacity:0.23;}.cls-107{fill:#a2341e;opacity:0.3;}.cls-108{fill:#472c1f;opacity:0.45;}.cls-109{fill:#432e26;opacity:0.41;}.cls-110{fill:#30261f;opacity:0.13;}.cls-111{fill:#9f3f2b;opacity:0.43;}.cls-112{fill:#4e1f11;opacity:0.35;}.cls-113{fill:#321208;opacity:0.25;}.cls-114{fill:#2d1c16;opacity:0.17;}.cls-115{fill:#42251a;opacity:0.5;}.cls-116{fill:#573122;opacity:0.24;}.cls-117{fill:#512316;opacity:0.5;}.cls-118{fill:#b23c26;opacity:0.31;}.cls-119{fill:#a04f3e;opacity:0.11;}.cls-120{fill:#552c1d;opacity:0.37;}.cls-121{fill:#8f3221;opacity:0.43;}.cls-122{fill:#7b3017;opacity:0.47;}.cls-123{fill:#672712;opacity:0.47;}.cls-124{fill:#312219;opacity:0.32;}.cls-125{fill:#271d10;opacity:0.13;}.cls-126{fill:#6a2a15;opacity:0.12;}.cls-127{fill:#552515;opacity:0.18;}.cls-128{fill:#5a2318;opacity:0.26;}.cls-129{fill:#542b1f;opacity:0.39;}.cls-130{fill:#524233;opacity:0.46;}.cls-131{fill:#442015;opacity:0.4;}.cls-132{fill:#682d1c;opacity:0.16;}.cls-133{fill:#522013;opacity:0.21;}.cls-134{fill:#491b0e;opacity:0.39;}.cls-135{fill:#4a2016;opacity:0.26;}.cls-136{fill:#402014;opacity:0.42;}.cls-137{fill:#5d271a;opacity:0.12;}.cls-138{fill:#461b10;opacity:0.44;}.cls-139{fill:#532c22;opacity:0.15;}.cls-140{fill:#994427;opacity:0.22;}.cls-141{fill:#593324;opacity:0.48;}.cls-142{fill:#923721;opacity:0.44;}.cls-143{fill:#9a4833;opacity:0.22;}.cls-144{fill:#6f2c1d;opacity:0.46;}.cls-145{fill:#642a1b;opacity:0.17;}.cls-146{fill:#5d2d1c;opacity:0.32;}.cls-147{fill:#473220;opacity:0.2;}.cls-148{fill:#481d10;opacity:0.25;}.cls-149{fill:#704439;opacity:0.19;}.cls-150{fill:#6d3d2f;opacity:0.4;}.cls-151{fill:#4e2112;opacity:0.33;}.cls-152{fill:#7f2c1f;opacity:0.34;}.cls-153{fill:#a15c43;opacity:0.25;}.cls-154{fill:#7e3824;opacity:0.29;}.cls-155{fill:#513120;opacity:0.3;}.cls-156{fill:#ac432b;opacity:0.32;}.cls-157{fill:#461d11;opacity:0.23;}.cls-158{fill:#52160a;opacity:0.13;}.cls-159{fill:#4a1d0e;opacity:0.14;}.cls-160{fill:#32160c;opacity:0.16;}.cls-161{fill:#98402d;opacity:0.42;}.cls-162{fill:#613222;opacity:0.33;}.cls-163{fill:#a6311e;opacity:0.4;}.cls-164{fill:#602313;opacity:0.45;}.cls-165{fill:#7d2b19;opacity:0.28;}.cls-166{fill:#742914;opacity:0.38;}.cls-167{fill:#7b2711;opacity:0.21;}.cls-168{fill:#bd5c42;opacity:0.31;}.cls-169{fill:#ac4333;opacity:0.23;}.cls-170{fill:#a4452c;opacity:0.2;}.cls-171{fill:#a04933;opacity:0.43;}.cls-172{fill:#a4402e;opacity:0.16;}.cls-173{fill:#9d5d48;opacity:0.28;}.cls-174{fill:#5b2c1c;opacity:0.1;}.cls-175{fill:#56180b;opacity:0.5;}.cls-176{fill:#9d3622;opacity:0.17;}.cls-177{fill:#471e0f;opacity:0.17;}.cls-178{fill:#632d1a;opacity:0.37;}.cls-179,.cls-215{fill:#743725;}.cls-179{opacity:0.19;}.cls-180{fill:#49220f;opacity:0.48;}.cls-181{fill:#a73e2c;opacity:0.48;}.cls-182{fill:#40190c;opacity:0.31;}.cls-183{fill:#ac4f3f;opacity:0.33;}.cls-184{fill:#964735;opacity:0.33;}.cls-185{fill:#4e180b;opacity:0.38;}.cls-186{fill:#7b351c;opacity:0.32;}.cls-187{fill:#6f2010;opacity:0.35;}.cls-188{fill:#6b2812;opacity:0.4;}.cls-189{fill:#b2583d;opacity:0.11;}.cls-190{fill:#96311c;opacity:0.4;}.cls-191{fill:#b13d28;opacity:0.46;}.cls-192{fill:#7c2d1b;opacity:0.2;}.cls-193{fill:#9c3e26;opacity:0.22;}.cls-194{fill:#bd5544;opacity:0.38;}.cls-195{fill:#b55343;opacity:0.29;}.cls-196{fill:#5e1d0d;opacity:0.34;}.cls-197{fill:#361f14;opacity:0.44;}.cls-198{fill:#b93c2b;opacity:0.37;}.cls-199{fill:#5a1b0d;opacity:0.37;}.cls-200{fill:#bf5040;opacity:0.37;}.cls-201{fill:#572716;opacity:0.32;}.cls-202{fill:#591b0e;opacity:0.16;}.cls-203{fill:#ce7a6e;opacity:0.34;}.cls-204{fill:#4c2515;opacity:0.31;}.cls-205{fill:#582812;opacity:0.21;}.cls-206{fill:#a14d38;opacity:0.38;}.cls-207{fill:#7d2613;opacity:0.12;}.cls-208{fill:#b94837;opacity:0.13;}.cls-209{fill:#b04636;opacity:0.22;}.cls-210{fill:#a84b36;opacity:0.41;}.cls-211{fill:#aa3827;opacity:0.29;}.cls-212{fill:#a23624;opacity:0.45;}.cls-213{fill:#b34130;opacity:0.37;}.cls-214{fill:#aa4f3c;opacity:0.37;}.cls-215{opacity:0.24;}.cls-216{fill:#662f1f;opacity:0.46;}.cls-217{fill:#a94732;opacity:0.35;}.cls-218{fill:#8e2b18;opacity:0.4;}.cls-219{fill:#9b311e;opacity:0.26;}.cls-220{fill:#b75a44;opacity:0.43;}.cls-221{fill:#80422c;opacity:0.23;}.cls-222{fill:#934d38;opacity:0.17;}.cls-223{fill:#b04935;opacity:0.16;}.cls-224{fill:#af3724;opacity:0.34;}.cls-225{fill:#ba4f3e;opacity:0.24;}.cls-226{fill:#af3d2a;opacity:0.11;}.cls-227{fill:#8f6138;opacity:0.13;}.cls-228{fill:#993922;opacity:0.18;}.cls-229{fill:#ae4831;opacity:0.22;}.cls-230{fill:#84361c;opacity:0.41;}.cls-231{fill:#702f17;opacity:0.31;}.cls-232{fill:#743c1f;opacity:0.4;}.cls-233{fill:#a14f3a;opacity:0.15;}.cls-234{fill:#402614;opacity:0.33;}.cls-235{fill:#7d472c;opacity:0.5;}.cls-236{fill:#d58173;opacity:0.32;}.cls-237{fill:#b4553f;opacity:0.26;}.cls-238{fill:#ab4e38;opacity:0.38;}.cls-239{fill:#a63220;opacity:0.42;}.cls-240{fill:#a0563f;opacity:0.11;}.cls-241{fill:#a85e47;opacity:0.42;}.cls-242{fill:#b63825;opacity:0.4;}.cls-243{fill:#792613;opacity:0.37;}.cls-244{fill:#892814;opacity:0.22;}.cls-245{fill:#8c422b;opacity:0.39;}.cls-246{fill:#9e4d35;opacity:0.25;}.cls-247{fill:#b35240;opacity:0.14;}.cls-248{fill:#ab4936;opacity:0.21;}.cls-249{fill:#743521;opacity:0.14;}.cls-250{fill:#963e22;opacity:0.42;}.cls-251{fill:#b25839;opacity:0.48;}.cls-252{fill:#ba5540;opacity:0.15;}.cls-253{fill:#a83419;opacity:0.11;}.cls-254{fill:#a1321b;opacity:0.48;}.cls-255{fill:#a03c25;opacity:0.34;}.cls-256{fill:#b9513c;opacity:0.39;}.cls-257{fill:#a2674c;opacity:0.49;}.cls-258{fill:#b84737;opacity:0.44;}.cls-259{fill:#b94f3c;opacity:0.15;}.cls-260{fill:#42200c;opacity:0.23;}.cls-261{fill:#3b1d0c;opacity:0.35;}.cls-262{fill:#ad4c38;opacity:0.27;}.cls-263{fill:#8e512f;opacity:0.19;}.cls-264{fill:#bb533d;opacity:0.29;}.cls-265{fill:#aa4a33;opacity:0.11;}.cls-266{fill:#924c32;opacity:0.37;}.cls-267{fill:#a34d2e;opacity:0.11;}.cls-268{fill:#b34632;opacity:0.29;}.cls-269{fill:#9b3827;opacity:0.31;}.cls-270{fill:#a24329;opacity:0.13;}.cls-271{fill:#c54537;opacity:0.23;}.cls-272{fill:#bb5847;opacity:0.32;}.cls-273{fill:#b34733;opacity:0.23;}.cls-274{fill:#a86041;opacity:0.35;}</style></defs><g class="cls-1"><g id="Layer_2" data-name="Layer 2"><g id="Layer_1-2" data-name="Layer 1"><polygon class="cls-2" points="0.99 0 3.83 5.24 11.1 4.12 5.6 0 0.99 0"/><polygon class="cls-3" points="0 81.53 0 86.16 1.59 86.65 0 81.53"/><polygon class="cls-4" points="1.59 86.65 5.32 96 15.76 83.84 1.59 86.65"/><polygon class="cls-5" points="0 69.04 0 74.53 1.77 68.12 0 69.04"/><polygon class="cls-6" points="0 86.16 0 87.95 1.59 86.65 0 86.16"/><polygon class="cls-7" points="7.93 61.94 16.51 74.11 24.53 63.81 7.93 61.94"/><polygon class="cls-8" points="0 77.98 0 78.57 15.76 83.84 16.51 74.11 0 77.98"/><polygon class="cls-9" points="0 77.98 16.51 74.11 1.77 68.12 0 74.53 0 77.98"/><polygon class="cls-10" points="0 111.34 0 116.31 2.33 107.8 0 111.34"/><polygon class="cls-11" points="0 16.98 0 19.62 0.84 19.65 0 16.98"/><polygon class="cls-12" points="0 19.62 0 22.32 0.84 19.65 0 19.62"/><polygon class="cls-13" points="0 67.28 0 69.04 1.77 68.12 0 67.28"/><polygon class="cls-14" points="0 96.72 0 106.35 2.33 107.8 5.32 96 0 96.72"/><polygon class="cls-15" points="0 40.61 0 42.52 0.47 42.29 0 40.61"/><polygon class="cls-16" points="0 61.87 0 67.28 1.77 68.12 7.93 61.94 0 61.87"/><polygon class="cls-17" points="7.93 61.94 1.77 68.12 16.51 74.11 7.93 61.94"/><polygon class="cls-18" points="0 31.11 5.88 31.63 0.84 19.65 0 22.32 0 31.11"/><polygon class="cls-19" points="0 108.24 0 111.34 2.33 107.8 0 108.24"/><polygon class="cls-20" points="0 51.75 8.68 56.33 7.74 49.78 0 48.48 0 51.75"/><polygon class="cls-21" points="0 106.35 0 108.24 2.33 107.8 0 106.35"/><polygon class="cls-22" points="0 0 0 3.81 3.83 5.24 0.99 0 0 0"/><polygon class="cls-23" points="0 3.81 0 10.59 3.83 5.24 0 3.81"/><polygon class="cls-24" points="0 96.72 5.32 96 1.59 86.65 0 87.95 0 96.72"/><polygon class="cls-25" points="0.47 42.29 7.74 49.78 12.03 40.42 0.47 42.29"/><polygon class="cls-26" points="0 51.75 0 58.65 8.68 56.33 0 51.75"/><polygon class="cls-27" points="0 31.11 0 40.61 0.47 42.29 5.88 31.63 0 31.11"/><polygon class="cls-28" points="0 48.48 7.74 49.78 0.47 42.29 0 42.52 0 48.48"/><polygon class="cls-29" points="5.88 31.63 20.43 38.55 21.36 23.95 5.88 31.63"/><polygon class="cls-30" points="5.88 31.63 0.47 42.29 12.03 40.42 5.88 31.63"/><polygon class="cls-31" points="11.9 120 8.49 104.61 2.33 107.8 9.95 120 11.9 120"/><polygon class="cls-32" points="9.95 120 2.33 107.8 0 116.31 0 120 9.95 120"/><polygon class="cls-33" points="5.32 96 2.33 107.8 8.49 104.61 5.32 96"/><polygon class="cls-34" points="11.1 4.12 3.83 5.24 12.59 19.84 11.1 4.12"/><polygon class="cls-35" points="0 58.65 0 61.87 7.93 61.94 8.68 56.33 0 58.65"/><polygon class="cls-36" points="0 13.27 12.59 19.84 3.83 5.24 0 10.59 0 13.27"/><polygon class="cls-37" points="0.84 19.65 5.88 31.63 12.59 19.84 0.84 19.65"/><polygon class="cls-38" points="0 13.27 0 16.98 0.84 19.65 12.59 19.84 0 13.27"/><polygon class="cls-39" points="15.76 83.84 28.07 94.32 32.36 84.59 15.76 83.84"/><polygon class="cls-40" points="8.49 104.61 26.58 111.54 28.07 94.32 8.49 104.61"/><polygon class="cls-41" points="0 78.57 0 81.53 1.59 86.65 15.76 83.84 0 78.57"/><polygon class="cls-42" points="12.59 19.84 5.88 31.63 21.36 23.95 12.59 19.84"/><polygon class="cls-43" points="16.51 74.11 15.76 83.84 32.36 84.59 16.51 74.11"/><polygon class="cls-44" points="26.58 111.54 38.33 114.34 41.5 108.17 26.58 111.54"/><polygon class="cls-45" points="5.88 31.63 12.03 40.42 20.43 38.55 5.88 31.63"/><polygon class="cls-46" points="29.75 64.75 16.51 74.11 32.36 84.59 29.75 64.75"/><polygon class="cls-47" points="20.43 38.55 12.03 40.42 23.78 49.22 20.43 38.55"/><polygon class="cls-48" points="12.03 40.42 7.74 49.78 23.78 49.22 12.03 40.42"/><polygon class="cls-49" points="7.74 49.78 8.68 56.33 23.78 49.22 7.74 49.78"/><polygon class="cls-50" points="26.77 56.14 24.53 63.81 29.75 64.75 26.77 56.14"/><polygon class="cls-51" points="32.36 10.67 21.36 23.95 33.48 27.32 32.36 10.67"/><polygon class="cls-52" points="8.68 56.33 24.53 63.81 26.77 56.14 8.68 56.33"/><polygon class="cls-53" points="8.68 56.33 7.93 61.94 24.53 63.81 8.68 56.33"/><polygon class="cls-54" points="8.49 104.61 24.71 117.71 26.58 111.54 8.49 104.61"/><polygon class="cls-55" points="21.36 23.95 29.75 36.49 33.48 27.32 21.36 23.95"/><polygon class="cls-56" points="20.94 120 24.71 117.71 8.49 104.61 11.9 120 20.94 120"/><polygon class="cls-57" points="23.78 49.22 8.68 56.33 26.77 56.14 23.78 49.22"/><polygon class="cls-58" points="5.32 96 8.49 104.61 28.07 94.32 5.32 96"/><polygon class="cls-59" points="15.76 83.84 5.32 96 28.07 94.32 15.76 83.84"/><polygon class="cls-60" points="28.07 94.32 26.58 111.54 41.5 108.17 28.07 94.32"/><polygon class="cls-61" points="24.53 63.81 16.51 74.11 29.75 64.75 24.53 63.81"/><polygon class="cls-62" points="21.36 23.95 20.43 38.55 29.75 36.49 21.36 23.95"/><polygon class="cls-63" points="20.43 38.55 23.78 49.22 29.75 36.49 20.43 38.55"/><polygon class="cls-64" points="26.58 111.54 24.71 117.71 35.34 117.34 26.58 111.54"/><polygon class="cls-65" points="45.98 48.1 38.14 58.95 49.15 56.33 45.98 48.1"/><polygon class="cls-66" points="31.43 0.19 11.1 4.12 32.36 10.67 31.43 0.19"/><polygon class="cls-67" points="12.59 19.84 21.36 23.95 32.36 10.67 12.59 19.84"/><polygon class="cls-68" points="52.5 23.58 33.48 27.32 52.5 32.94 52.5 23.58"/><polygon class="cls-69" points="11.1 4.12 12.59 19.84 32.36 10.67 11.1 4.12"/><polygon class="cls-70" points="29.75 64.75 37.96 71.3 38.14 58.95 29.75 64.75"/><polygon class="cls-71" points="26.58 111.54 35.34 117.34 38.33 114.34 26.58 111.54"/><polygon class="cls-72" points="33.48 27.32 29.75 36.49 36.65 36.68 33.48 27.32"/><polygon class="cls-73" points="26.77 56.14 29.75 64.75 38.14 58.95 26.77 56.14"/><polygon class="cls-74" points="29.75 36.49 23.78 49.22 36.65 36.68 29.75 36.49"/><polygon class="cls-75" points="32.36 10.67 44.11 16.66 45.6 5.43 32.36 10.67"/><polygon class="cls-76" points="29.75 64.75 32.36 84.59 37.96 71.3 29.75 64.75"/><polygon class="cls-77" points="23.78 49.22 26.77 56.14 38.14 58.95 23.78 49.22"/><polygon class="cls-78" points="52.13 70.18 64.25 77.29 66.12 65.13 52.13 70.18"/><polygon class="cls-79" points="32.32 0 31.43 0.19 32.36 10.67 38.58 0 32.32 0"/><polygon class="cls-80" points="33.48 27.32 36.65 36.68 52.5 32.94 33.48 27.32"/><polygon class="cls-81" points="38.58 0 32.36 10.67 45.6 5.43 40.78 0 38.58 0"/><polygon class="cls-82" points="51.38 63.26 37.96 71.3 52.13 70.18 51.38 63.26"/><polygon class="cls-83" points="60.15 89.83 53.25 101.43 62.02 100.87 60.15 89.83"/><polygon class="cls-84" points="32.36 10.67 33.48 27.32 44.11 16.66 32.36 10.67"/><polygon class="cls-85" points="47.39 120 41.5 108.17 38.33 114.34 44.71 120 47.39 120"/><polygon class="cls-86" points="36.65 36.68 23.78 49.22 45.98 48.1 36.65 36.68"/><polygon class="cls-87" points="23.78 49.22 38.14 58.95 45.98 48.1 23.78 49.22"/><polygon class="cls-88" points="76.38 76.35 78.61 87.02 84.95 73.73 76.38 76.35"/><polygon class="cls-89" points="32.36 84.59 28.07 94.32 48.4 95.07 32.36 84.59"/><polygon class="cls-90" points="28.07 94.32 41.5 108.17 48.4 95.07 28.07 94.32"/><polygon class="cls-91" points="40.78 0 45.6 5.43 48.81 0 40.78 0"/><polygon class="cls-92" points="59.59 61.76 52.13 70.18 66.12 65.13 59.59 61.76"/><polygon class="cls-93" points="44.71 120 38.33 114.34 35.34 117.34 40.79 120 44.71 120"/><polygon class="cls-94" points="38.14 58.95 37.96 71.3 51.38 63.26 38.14 58.95"/><polygon class="cls-95" points="49.15 56.33 38.14 58.95 51.38 63.26 49.15 56.33"/><polygon class="cls-96" points="70.59 28.07 72.43 38.54 73.78 37.21 70.59 28.07"/><polygon class="cls-97" points="48.4 95.07 41.5 108.17 53.25 101.43 48.4 95.07"/><polygon class="cls-98" points="44.11 16.66 33.48 27.32 52.5 23.58 44.11 16.66"/><polygon class="cls-99" points="44.11 16.66 52.5 23.58 53.44 10.85 44.11 16.66"/><polygon class="cls-100" points="54.93 44.54 49.15 56.33 59.59 61.76 54.93 44.54"/><polygon class="cls-101" points="36.65 36.68 45.98 48.1 52.5 32.94 36.65 36.68"/><polygon class="cls-102" points="45.6 5.43 44.11 16.66 53.44 10.85 45.6 5.43"/><polygon class="cls-103" points="48.81 0 45.6 5.43 53.44 10.85 52.13 0 48.81 0"/><polygon class="cls-104" points="52.13 70.18 37.96 71.3 56.42 87.4 52.13 70.18"/><polygon class="cls-105" points="52.5 32.94 45.98 48.1 54.93 44.54 52.5 32.94"/><polygon class="cls-106" points="45.98 48.1 49.15 56.33 54.93 44.54 45.98 48.1"/><polygon class="cls-107" points="79.55 18.15 83.65 18.15 85.89 8.42 79.55 18.15"/><polygon class="cls-108" points="62.02 100.87 53.25 101.43 62.02 117.15 62.02 100.87"/><polygon class="cls-109" points="37.96 71.3 32.36 84.59 56.42 87.4 37.96 71.3"/><polygon class="cls-110" points="32.36 84.59 48.4 95.07 56.42 87.4 32.36 84.59"/><polygon class="cls-111" points="78.24 62.13 84.95 73.73 88.64 60.67 78.24 62.13"/><polygon class="cls-112" points="52.5 23.58 52.5 32.94 59.03 29.38 52.5 23.58"/><polygon class="cls-113" points="49.15 56.33 51.38 63.26 59.59 61.76 49.15 56.33"/><polygon class="cls-114" points="51.38 63.26 52.13 70.18 59.59 61.76 51.38 63.26"/><polygon class="cls-115" points="48.4 95.07 53.25 101.43 60.15 89.83 48.4 95.07"/><polygon class="cls-116" points="56.42 87.4 48.4 95.07 60.15 89.83 56.42 87.4"/><polygon class="cls-117" points="52.5 23.58 59.03 29.38 61.27 23.02 52.5 23.58"/><polygon class="cls-118" points="106.78 20.59 118.71 25.26 119.27 14.6 106.78 20.59"/><polygon class="cls-119" points="90.36 26.39 90.36 39.86 95.59 32.94 90.36 26.39"/><polygon class="cls-120" points="53.44 10.85 52.5 23.58 61.27 23.02 53.44 10.85"/><polygon class="cls-121" points="65.93 12.72 70.59 28.07 79.55 18.15 65.93 12.72"/><polygon class="cls-122" points="68.21 0 62.02 4.87 65.93 12.72 70 0 68.21 0"/><polygon class="cls-123" points="52.13 0 53.44 10.85 62.02 4.87 56.69 0 52.13 0"/><polygon class="cls-124" points="53.25 101.43 41.5 108.17 62.02 117.15 53.25 101.43"/><polygon class="cls-125" points="57.01 120 62.02 117.15 41.5 108.17 47.39 120 57.01 120"/><polygon class="cls-126" points="54.93 44.54 63.69 46.41 64.07 37.43 54.93 44.54"/><polygon class="cls-127" points="54.93 44.54 59.59 61.76 63.69 46.41 54.93 44.54"/><polygon class="cls-128" points="59.03 29.38 52.5 32.94 64.07 37.43 59.03 29.38"/><polygon class="cls-129" points="52.5 32.94 54.93 44.54 64.07 37.43 52.5 32.94"/><polygon class="cls-130" points="52.13 70.18 56.42 87.4 64.25 77.29 52.13 70.18"/><polygon class="cls-131" points="56.42 87.4 60.15 89.83 64.25 77.29 56.42 87.4"/><polygon class="cls-132" points="66.12 65.13 64.25 77.29 76.38 76.35 66.12 65.13"/><polygon class="cls-133" points="53.44 10.85 61.27 23.02 65.93 12.72 53.44 10.85"/><polygon class="cls-134" points="62.02 4.87 53.44 10.85 65.93 12.72 62.02 4.87"/><polygon class="cls-135" points="70.59 28.07 64.07 37.43 72.43 38.54 70.59 28.07"/><polygon class="cls-136" points="63.69 46.41 59.59 61.76 66.12 65.13 63.69 46.41"/><polygon class="cls-137" points="61.27 23.02 59.03 29.38 70.59 28.07 61.27 23.02"/><polygon class="cls-138" points="59.03 29.38 64.07 37.43 70.59 28.07 59.03 29.38"/><polygon class="cls-139" points="65.93 12.72 61.27 23.02 70.59 28.07 65.93 12.72"/><polygon class="cls-140" points="64.07 37.43 63.69 46.41 72.43 38.54 64.07 37.43"/><polygon class="cls-141" points="62.02 100.87 62.02 117.15 74.88 106.48 62.02 100.87"/><polygon class="cls-142" points="79.55 18.15 70.59 28.07 80.48 28.82 79.55 18.15"/><polygon class="cls-143" points="73.78 37.21 80.11 37.99 80.48 28.82 73.78 37.21"/><polygon class="cls-144" points="76.38 76.35 64.25 77.29 78.61 87.02 76.38 76.35"/><polygon class="cls-145" points="64.25 77.29 60.15 89.83 78.61 87.02 64.25 77.29"/><polygon class="cls-146" points="66.12 65.13 76.38 76.35 78.24 62.13 66.12 65.13"/><polygon class="cls-147" points="79.61 120 74.88 106.48 62.02 117.15 69.32 120 79.61 120"/><polygon class="cls-148" points="63.69 46.41 66.12 65.13 78.24 62.13 63.69 46.41"/><polygon class="cls-149" points="60.15 89.83 62.02 100.87 78.61 87.02 60.15 89.83"/><polygon class="cls-150" points="62.02 100.87 74.88 106.48 78.61 87.02 62.02 100.87"/><polygon class="cls-151" points="80.11 37.99 72.43 38.54 83.28 44.35 80.11 37.99"/><polygon class="cls-152" points="79.55 18.15 80.48 28.82 83.65 18.15 79.55 18.15"/><polygon class="cls-153" points="73.78 37.21 72.43 38.54 80.11 37.99 73.78 37.21"/><polygon class="cls-154" points="70.59 28.07 73.78 37.21 80.48 28.82 70.59 28.07"/><polygon class="cls-155" points="85.85 120 87.01 118.84 74.88 106.48 79.61 120 85.85 120"/><polygon class="cls-156" points="84.15 56.56 78.24 62.13 88.64 60.67 84.15 56.56"/><polygon class="cls-157" points="72.43 38.54 63.69 46.41 83.28 44.35 72.43 38.54"/><polygon class="cls-158" points="87.88 0 90.36 6.74 91.01 0 87.88 0"/><polygon class="cls-159" points="63.69 46.41 78.24 62.13 84.15 56.56 63.69 46.41"/><polygon class="cls-160" points="83.28 44.35 63.69 46.41 84.15 56.56 83.28 44.35"/><polygon class="cls-161" points="78.24 62.13 76.38 76.35 84.95 73.73 78.24 62.13"/><polygon class="cls-162" points="93.16 100.12 87.01 118.84 97.27 112.47 93.16 100.12"/><polygon class="cls-163" points="120 5.26 113.68 9.17 117.03 11.98 120 7.86 120 5.26"/><polygon class="cls-164" points="70 0 65.93 12.72 85.89 8.42 73.38 0 70 0"/><polygon class="cls-165" points="65.93 12.72 79.55 18.15 85.89 8.42 65.93 12.72"/><polygon class="cls-166" points="73.38 0 85.89 8.42 81.98 0 73.38 0"/><polygon class="cls-167" points="81.98 0 85.89 8.42 85.58 0 81.98 0"/><polygon class="cls-168" points="84.15 56.56 88.64 60.67 91.55 58.41 84.15 56.56"/><polygon class="cls-169" points="84.95 73.73 78.61 87.02 90.92 90.02 84.95 73.73"/><polygon class="cls-170" points="80.48 28.82 90.36 39.86 90.36 26.39 80.48 28.82"/><polygon class="cls-171" points="102.11 26.27 102.3 38.74 110.69 29.75 102.11 26.27"/><polygon class="cls-172" points="83.65 18.15 80.48 28.82 90.36 26.39 83.65 18.15"/><polygon class="cls-173" points="80.48 28.82 80.11 37.99 90.36 39.86 80.48 28.82"/><polygon class="cls-174" points="80.11 37.99 83.28 44.35 90.36 39.86 80.11 37.99"/><polygon class="cls-175" points="85.58 0 85.89 8.42 90.36 6.74 87.88 0 85.58 0"/><polygon class="cls-176" points="106.78 20.59 102.11 25.64 110.69 29.75 106.78 20.59"/><polygon class="cls-177" points="90.36 39.86 83.28 44.35 91.11 46.6 90.36 39.86"/><polygon class="cls-178" points="93 54.08 93.06 55.78 93.14 54.85 93 54.08"/><polygon class="cls-179" points="74.88 106.48 87.01 118.84 93.16 100.12 74.88 106.48"/><polygon class="cls-180" points="120 109.62 109.57 116.59 120 116.89 120 109.62"/><polygon class="cls-181" points="102.11 25.64 102.11 26.27 110.69 29.75 102.11 25.64"/><polygon class="cls-182" points="83.28 44.35 84.15 56.56 91.11 46.6 83.28 44.35"/><polygon class="cls-183" points="90.92 90.02 78.61 87.02 93.16 100.12 90.92 90.02"/><polygon class="cls-184" points="78.61 87.02 74.88 106.48 93.16 100.12 78.61 87.02"/><polygon class="cls-185" points="91.01 0 90.36 6.74 98.01 2.81 95.62 0 91.01 0"/><polygon class="cls-186" points="93 54.08 91.55 58.41 93.06 55.78 93 54.08"/><polygon class="cls-187" points="102.67 6.36 100.06 13.1 104.35 15.35 102.67 6.36"/><polygon class="cls-188" points="91.11 46.6 84.15 56.56 93 54.08 91.11 46.6"/><polygon class="cls-189" points="84.15 56.56 91.55 58.41 93 54.08 84.15 56.56"/><polygon class="cls-190" points="83.65 18.15 90.36 26.39 93.91 20.21 83.65 18.15"/><polygon class="cls-191" points="85.89 8.42 83.65 18.15 93.91 20.21 85.89 8.42"/><polygon class="cls-192" points="90.36 6.74 85.89 8.42 93.91 20.21 90.36 6.74"/><polygon class="cls-193" points="102.11 26.27 95.59 32.94 102.3 38.74 102.11 26.27"/><polygon class="cls-194" points="91.55 58.41 88.64 60.67 97.62 77.02 91.55 58.41"/><polygon class="cls-195" points="88.64 60.67 84.95 73.73 97.62 77.02 88.64 60.67"/><polygon class="cls-196" points="98.01 2.81 100.06 13.1 102.67 6.36 98.01 2.81"/><polygon class="cls-197" points="102.06 120 97.27 112.47 87.01 118.84 91.04 120 102.06 120"/><polygon class="cls-198" points="113.68 9.17 106.78 20.59 117.03 11.98 113.68 9.17"/><polygon class="cls-199" points="98.01 2.81 90.36 6.74 100.06 13.1 98.01 2.81"/><polygon class="cls-200" points="84.95 73.73 90.92 90.02 97.62 77.02 84.95 73.73"/><polygon class="cls-201" points="90.36 39.86 91.11 46.6 99.69 47.72 90.36 39.86"/><polygon class="cls-202" points="100.42 0 98.01 2.81 102.67 6.36 104.33 0 100.42 0"/><polygon class="cls-203" points="108.04 61.47 97.62 77.02 108.16 61.61 108.04 61.47"/><polygon class="cls-204" points="93 54.08 93.14 54.85 99.69 47.72 93 54.08"/><polygon class="cls-205" points="91.11 46.6 93 54.08 99.69 47.72 91.11 46.6"/><polygon class="cls-206" points="90.92 90.02 93.16 100.12 101.55 93.57 90.92 90.02"/><polygon class="cls-207" points="90.36 6.74 93.91 20.21 100.06 13.1 90.36 6.74"/><polygon class="cls-208" points="97.62 77.02 102.11 88.71 106.59 83.84 97.62 77.02"/><polygon class="cls-209" points="90.36 26.39 95.59 32.94 102.11 26.27 90.36 26.39"/><polygon class="cls-210" points="120 60.47 110.11 60.5 120 63.89 120 60.47"/><polygon class="cls-211" points="90.36 26.39 102.11 26.27 102.11 25.64 90.36 26.39"/><polygon class="cls-212" points="93.91 20.21 90.36 26.39 102.11 25.64 93.91 20.21"/><polygon class="cls-213" points="97.62 77.02 90.92 90.02 102.11 88.71 97.62 77.02"/><polygon class="cls-214" points="90.92 90.02 101.55 93.57 102.11 88.71 90.92 90.02"/><polygon class="cls-215" points="95.59 32.94 90.36 39.86 102.3 38.74 95.59 32.94"/><polygon class="cls-216" points="90.36 39.86 99.69 47.72 102.3 38.74 90.36 39.86"/><polygon class="cls-217" points="108.16 61.61 97.62 77.02 110.13 75.05 108.16 61.61"/><polygon class="cls-218" points="100.06 13.1 93.91 20.21 104.35 15.35 100.06 13.1"/><polygon class="cls-219" points="93.91 20.21 102.11 25.64 104.35 15.35 93.91 20.21"/><polygon class="cls-220" points="111.81 88.33 118.9 97.13 119.83 80.28 111.81 88.33"/><polygon class="cls-221" points="93.16 100.12 97.27 112.47 105.47 101.25 93.16 100.12"/><polygon class="cls-222" points="101.55 93.57 93.16 100.12 105.47 101.25 101.55 93.57"/><polygon class="cls-223" points="106.59 83.84 102.11 88.71 111.81 88.33 106.59 83.84"/><polygon class="cls-224" points="117.03 11.98 106.78 20.59 119.27 14.6 117.03 11.98"/><polygon class="cls-225" points="97.62 77.02 106.59 83.84 110.13 75.05 97.62 77.02"/><polygon class="cls-226" points="104.35 15.35 102.11 25.64 106.78 20.59 104.35 15.35"/><polygon class="cls-227" points="120 104.2 118.9 97.13 105.47 101.25 120 108.71 120 104.2"/><polygon class="cls-228" points="91.55 58.41 97.62 77.02 108.04 61.47 91.55 58.41"/><polygon class="cls-229" points="93.06 55.78 91.55 58.41 108.04 61.47 93.06 55.78"/><polygon class="cls-230" points="93.14 54.85 93.06 55.78 109.27 57.41 93.14 54.85"/><polygon class="cls-231" points="99.69 47.72 93.14 54.85 109.27 57.41 99.69 47.72"/><polygon class="cls-232" points="120 108.71 105.47 101.25 109.57 116.59 120 109.62 120 108.71"/><polygon class="cls-233" points="93.06 55.78 108.04 61.47 109.27 57.41 93.06 55.78"/><polygon class="cls-234" points="107.22 120 109.57 116.59 97.27 112.47 102.06 120 107.22 120"/><polygon class="cls-235" points="105.47 101.25 97.27 112.47 109.57 116.59 105.47 101.25"/><polygon class="cls-236" points="108.04 61.47 108.16 61.61 110.11 60.5 108.04 61.47"/><polygon class="cls-237" points="109.27 57.41 108.04 61.47 110.11 60.5 109.27 57.41"/><polygon class="cls-238" points="102.11 88.71 101.55 93.57 111.81 88.33 102.11 88.71"/><polygon class="cls-239" points="120 7.86 117.03 11.98 119.27 14.6 120 12.57 120 7.86"/><polygon class="cls-240" points="101.55 93.57 105.47 101.25 111.81 88.33 101.55 93.57"/><polygon class="cls-241" points="114.05 33.31 102.3 38.74 118.71 44.54 114.05 33.31"/><polygon class="cls-242" points="104.35 15.35 106.78 20.59 113.68 9.17 104.35 15.35"/><polygon class="cls-243" points="104.33 0 102.67 6.36 113.68 9.17 109.22 0 104.33 0"/><polygon class="cls-244" points="102.67 6.36 104.35 15.35 113.68 9.17 102.67 6.36"/><polygon class="cls-245" points="120 32.1 114.05 33.31 120 37.49 120 32.1"/><polygon class="cls-246" points="110.69 29.75 102.3 38.74 114.05 33.31 110.69 29.75"/><polygon class="cls-247" points="110.11 60.5 108.16 61.61 117.97 71.86 110.11 60.5"/><polygon class="cls-248" points="108.16 61.61 110.13 75.05 117.97 71.86 108.16 61.61"/><polygon class="cls-249" points="102.3 38.74 99.69 47.72 118.71 44.54 102.3 38.74"/><polygon class="cls-250" points="99.69 47.72 109.27 57.41 118.71 44.54 99.69 47.72"/><polygon class="cls-251" points="120 48.06 118.71 44.54 109.27 57.41 120 50.64 120 48.06"/><polygon class="cls-252" points="120 50.64 109.27 57.41 110.11 60.5 120 50.9 120 50.64"/><polygon class="cls-253" points="106.78 20.59 110.69 29.75 118.71 25.26 106.78 20.59"/><polygon class="cls-254" points="120 1.29 117.71 0 109.22 0 113.68 9.17 120 5.26 120 1.29"/><polygon class="cls-255" points="110.69 29.75 114.05 33.31 118.71 25.26 110.69 29.75"/><polygon class="cls-256" points="117.97 71.86 110.13 75.05 119.83 80.28 117.97 71.86"/><polygon class="cls-257" points="111.81 88.33 105.47 101.25 118.9 97.13 111.81 88.33"/><polygon class="cls-258" points="110.13 75.05 106.59 83.84 119.83 80.28 110.13 75.05"/><polygon class="cls-259" points="106.59 83.84 111.81 88.33 119.83 80.28 106.59 83.84"/><polygon class="cls-260" points="120 120 120 116.89 109.57 116.59 116.63 120 120 120"/><polygon class="cls-261" points="116.63 120 109.57 116.59 107.22 120 116.63 120"/><polygon class="cls-262" points="120 50.9 110.11 60.5 120 60.47 120 50.9"/><polygon class="cls-263" points="120 98.15 118.9 97.13 120 104.2 120 98.15"/><polygon class="cls-264" points="120 80.41 119.83 80.28 118.9 97.13 120 96.23 120 80.41"/><polygon class="cls-265" points="120 63.89 110.11 60.5 117.97 71.86 120 70.14 120 63.89"/><polygon class="cls-266" points="120 37.49 114.05 33.31 118.71 44.54 120 43.99 120 37.49"/><polygon class="cls-267" points="120 43.99 118.71 44.54 120 48.06 120 43.99"/><polygon class="cls-268" points="120 14.81 119.27 14.6 118.71 25.26 120 23.94 120 14.81"/><polygon class="cls-269" points="120 12.57 119.27 14.6 120 14.81 120 12.57"/><polygon class="cls-270" points="120 25.91 118.71 25.26 114.05 33.31 120 32.1 120 25.91"/><polygon class="cls-271" points="120 72.99 117.97 71.86 119.83 80.28 120 80.21 120 72.99"/><polygon class="cls-272" points="120 70.14 117.97 71.86 120 72.99 120 70.14"/><polygon class="cls-273" points="120 23.94 118.71 25.26 120 25.91 120 23.94"/><polygon class="cls-274" points="120 96.23 118.9 97.13 120 98.15 120 96.23"/></g></g></g></svg>