<svg xmlns="http://www.w3.org/2000/svg" xmlns:xlink="http://www.w3.org/1999/xlink" viewBox="0 0 78.04 90.85"><defs><style>.cls-1{isolation:isolate;}.cls-2{mix-blend-mode:color-dodge;}.cls-3{fill:url(#radial-gradient);}.cls-4{fill:url(#radial-gradient-2);}.cls-5{fill:url(#radial-gradient-3);}.cls-6{fill:url(#radial-gradient-4);}.cls-7{fill:url(#radial-gradient-5);}.cls-8{fill:url(#radial-gradient-6);}.cls-9{fill:url(#radial-gradient-7);}.cls-10{fill:url(#radial-gradient-8);}.cls-11{fill:url(#radial-gradient-9);}.cls-12{fill:url(#radial-gradient-10);}.cls-13{fill:url(#radial-gradient-11);}.cls-14{fill:url(#radial-gradient-12);}.cls-15{fill:url(#radial-gradient-13);}.cls-16{fill:url(#radial-gradient-14);}.cls-17{fill:url(#radial-gradient-15);}.cls-18{fill:url(#radial-gradient-16);}.cls-19{fill:url(#radial-gradient-17);}.cls-20{fill:url(#radial-gradient-18);}.cls-21{fill:url(#radial-gradient-19);}</style><radialGradient id="radial-gradient" cx="37.98" cy="45.04" r="68.24" gradientTransform="translate(-0.68 -0.53) scale(1.01 1.01)" gradientUnits="userSpaceOnUse"><stop offset="0" stop-color="#fbfbfb"/><stop offset="0.65"/></radialGradient><radialGradient id="radial-gradient-2" cx="37.97" cy="45.04" r="68.24" xlink:href="#radial-gradient"/><radialGradient id="radial-gradient-3" cx="37.97" cy="45.04" r="68.22" xlink:href="#radial-gradient"/><radialGradient id="radial-gradient-4" cx="37.97" cy="45.05" r="68.23" xlink:href="#radial-gradient"/><radialGradient id="radial-gradient-5" cx="37.97" cy="45.04" r="68.23" xlink:href="#radial-gradient"/><radialGradient id="radial-gradient-6" cx="37.97" cy="45.05" r="68.21" xlink:href="#radial-gradient"/><radialGradient id="radial-gradient-7" cx="37.97" cy="45.04" r="68.21" xlink:href="#radial-gradient"/><radialGradient id="radial-gradient-8" cx="37.97" cy="45.03" r="68.21" xlink:href="#radial-gradient"/><radialGradient id="radial-gradient-9" cx="37.97" cy="45.04" r="68.24" xlink:href="#radial-gradient"/><radialGradient id="radial-gradient-10" cx="37.97" cy="45.04" r="68.22" xlink:href="#radial-gradient"/><radialGradient id="radial-gradient-11" cx="37.98" cy="45.04" r="68.22" xlink:href="#radial-gradient"/><radialGradient id="radial-gradient-12" cx="37.97" cy="45.04" r="68.24" xlink:href="#radial-gradient"/><radialGradient id="radial-gradient-13" cx="37.97" cy="45.04" r="68.23" xlink:href="#radial-gradient"/><radialGradient id="radial-gradient-14" cx="37.97" cy="45.04" r="68.23" xlink:href="#radial-gradient"/><radialGradient id="radial-gradient-15" cx="37.97" cy="45.05" r="68.22" xlink:href="#radial-gradient"/><radialGradient id="radial-gradient-16" cx="37.97" cy="45.04" r="68.24" xlink:href="#radial-gradient"/><radialGradient id="radial-gradient-17" cx="37.96" cy="45.04" r="68.26" xlink:href="#radial-gradient"/><radialGradient id="radial-gradient-18" cx="37.97" cy="45.04" r="68.23" xlink:href="#radial-gradient"/><radialGradient id="radial-gradient-19" cx="37.97" cy="45.04" r="68.23" xlink:href="#radial-gradient"/></defs><g class="cls-1"><g id="Layer_2" data-name="Layer 2"><g id="Layer_1-2" data-name="Layer 1"><g class="cls-2"><path class="cls-3" d="M1.49,31.85a.75.75,0,1,0-1.49,0A.75.75,0,0,0,1.49,31.85Z"/><path class="cls-4" d="M9,35.13a.76.76,0,1,0-1.51,0A.76.76,0,1,0,9,35.13Z"/><path class="cls-5" d="M8.14,69.66a.65.65,0,0,0,1.3,0A.65.65,0,1,0,8.14,69.66Z"/><path class="cls-6" d="M10.71,75.39a1,1,0,1,0,2,0A1,1,0,1,0,10.71,75.39Z"/><path class="cls-7" d="M17.81,75.39a.62.62,0,1,0-1.24,0A.62.62,0,1,0,17.81,75.39Z"/><path class="cls-8" d="M20,71.41a.62.62,0,1,0-1.24,0A.62.62,0,1,0,20,71.41Z"/><path class="cls-9" d="M25.89,40.75a.77.77,0,1,0-1.54,0A.77.77,0,1,0,25.89,40.75Z"/><path class="cls-10" d="M33.45,7.27a.51.51,0,0,0-1,0A.51.51,0,0,0,33.45,7.27Z"/><path class="cls-11" d="M42.33,70.83a.64.64,0,1,0,1.28,0A.64.64,0,1,0,42.33,70.83Z"/><path class="cls-12" d="M43.35,66.85a.79.79,0,0,0,1.58,0A.79.79,0,1,0,43.35,66.85Z"/><path class="cls-13" d="M46.57,7.5a.57.57,0,0,0-1.14,0A.57.57,0,0,0,46.57,7.5Z"/><path class="cls-14" d="M55.45,34.19a.82.82,0,1,0-1.63,0A.82.82,0,1,0,55.45,34.19Z"/><path class="cls-15" d="M57.74,35.48a.66.66,0,1,0-1.31,0A.66.66,0,0,0,57.74,35.48Z"/><path class="cls-16" d="M57.94,70a.9.9,0,0,0,1.79,0A.9.9,0,1,0,57.94,70Z"/><path class="cls-17" d="M62.41,72.11a.62.62,0,1,0,1.24,0A.62.62,0,0,0,62.41,72.11Z"/><path class="cls-18" d="M66.29,64.39a.6.6,0,0,0,1.19,0A.6.6,0,1,0,66.29,64.39Z"/><path class="cls-19" d="M71.63,41.8a.73.73,0,0,0,1.46,0A.73.73,0,1,0,71.63,41.8Z"/><path class="cls-20" d="M74.41,22.72a.76.76,0,0,0-1.52,0A.76.76,0,0,0,74.41,22.72Z"/><path class="cls-21" d="M76.83,28.19l-6.41-3.84a1,1,0,0,0,.1-.46,1,1,0,0,0-1.91-.14l-1.76-.18v0a.79.79,0,1,0-1.57,0,.94.94,0,0,0,0,.3L60,26.42a.83.83,0,0,0-.94-.38L56,17.5a.88.88,0,0,0,.57-.87.93.93,0,0,0-1.85,0,.76.76,0,0,0,0,.15L47.1,18.35a.55.55,0,0,0-.85-.27L38.58,9.76a.87.87,0,0,0,.23-.62.86.86,0,1,0-1.72,0,.82.82,0,0,0,.39.74l-2.27,3.93a.68.68,0,0,0-.88.28l-4-1.84a.57.57,0,0,0,0-.18.51.51,0,0,0-.55-.53L29.08,6a.51.51,0,0,0,.43-.53.54.54,0,0,0-1.07,0l-5,.28a.71.71,0,0,0-1.18-.46L18.4,1.4a.86.86,0,0,0,.2-.57.83.83,0,1,0-1.66,0,.94.94,0,0,0,0,.3L15,2a.66.66,0,0,0-1.23.31.67.67,0,0,0,.15.44L10.59,6.1a.77.77,0,0,0-1.28.58.73.73,0,0,0,.66.76L9,20.31a.85.85,0,0,0-.9.89.89.89,0,0,0,1.7.38l5,2.08a.85.85,0,0,0,0,.23.82.82,0,0,0,.1.4L9.56,28.35a.7.7,0,0,0-1.23.46.69.69,0,0,0,.85.68l1.55,5.3A.85.85,0,0,0,11,36.44v5.47a.67.67,0,0,0-.31.1L8.76,39.79A.78.78,0,0,0,9,39.22a.78.78,0,0,0-1.55,0,.31.31,0,0,0,0,.1l-2.91.54A.78.78,0,0,0,3,40a.73.73,0,0,0,.42.7l-2.23,5a.62.62,0,0,0-.84.6.64.64,0,0,0,1,.49l2,2a.77.77,0,0,0-.2.54A.81.81,0,0,0,4.57,50l2.22,2.07a.59.59,0,0,0-.13.39.62.62,0,0,0,1.11.38L14,57a.66.66,0,0,0-.07.3.6.6,0,0,0,.72.6l1.79,6.8a.56.56,0,0,0-.39.56.59.59,0,0,0,1.14.22l5.72,1.79a1.36,1.36,0,0,0,0,.21.87.87,0,1,0,1.73,0s0,0,0-.06L32,66.48a.48.48,0,0,0,.06.18l-6.87,5.59a1,1,0,0,0-1.76.68,1,1,0,0,0,.85,1l-.52,4.65a.64.64,0,0,0-.69.64l-5.43.1a.56.56,0,1,0-.11.39l9.68,6.2a1,1,0,0,0-.11.48,1,1,0,1,0,1.9,0,1.06,1.06,0,0,0-.1-.45l4.8-2.85a.81.81,0,0,0,1.09.21L40,90a.46.46,0,0,0-.15.35.48.48,0,0,0,.95,0h0L53.1,88.85a.61.61,0,0,0,1.21-.12.78.78,0,0,0,0-.22l5.56-2.69a.47.47,0,0,0,.87-.25.46.46,0,0,0-.14-.34l4.35-5.59a.6.6,0,1,0-.25-.61l-4.25-.43v0A.89.89,0,0,0,58.83,78l-5.07-3.58a.61.61,0,0,0,.08-.32.57.57,0,0,0-.45-.59L55,64.73a.56.56,0,0,0,.64-.57.78.78,0,0,0,0-.16l5.89-2.09a.85.85,0,0,0,1.63-.33.82.82,0,0,0-.49-.78l3.21-8.11a.85.85,0,0,0,1.15-.82.83.83,0,0,0-.5-.8l3.06-7.48a.89.89,0,0,0,1.2-.86.9.9,0,0,0-1.68-.46L64.8,40a1.24,1.24,0,0,0,.09-.45,1.07,1.07,0,0,0-.21-.65l6.48-5.62a.55.55,0,0,0,.93-.34l2.81.09a.5.5,0,0,0,1,0,.46.46,0,0,0-.26-.44l1.51-3.38a.66.66,0,0,0,.89-.63A.67.67,0,0,0,76.83,28.19Zm0,.08a.7.7,0,0,0-.07.3.64.64,0,0,0,.1.36l-3.38,2.51L72,32.54a.59.59,0,0,0-.5-.18L71,30.1l-1.16-5.28a.88.88,0,0,0,.56-.39ZM59.58,79.43l.56,5.69a.43.43,0,0,0-.35.3L50.7,83.3v-.07a.48.48,0,0,0,0-.18L58.76,79A.86.86,0,0,0,59.58,79.43ZM48.21,76.76l1.8,6a.48.48,0,0,0-.31.47v0L44.06,84l-.33,0a.49.49,0,0,0-.22-.33L45.2,80.8l2.36-4.11A1,1,0,0,0,48.21,76.76ZM34.12,77.89a.77.77,0,0,0,.66.65l-.4,3.33a.76.76,0,0,0-.77.5l-9.24-3a.78.78,0,0,0,0-.16v0l5.74-.78Zm1,4.84v-.08a.81.81,0,0,0-.08-.37l3.23-2a.79.79,0,0,0,1.13.13L41,82l1.84,1.84a.51.51,0,0,0-.11.22l-.92-.16Zm18.22,5.51a.63.63,0,0,0-.18.21l-9.44-4.11a.47.47,0,0,0,0-.17v0l6-.79a.51.51,0,0,0,.73.34l1.85,2.91Zm-3.23-5.5-1.8-6a.87.87,0,0,0,.61-.88,1,1,0,0,0,0-.25l3.79-1.27a.52.52,0,0,0,.33.33l-2.68,8.07A.54.54,0,0,0,50.1,82.74Zm-2.62-6.09-4,7a.58.58,0,0,0-.58.07l-3.4-3.4a.77.77,0,0,0,.18-.51.71.71,0,0,0,0-.26l7.55-3.3A.87.87,0,0,0,47.48,76.65ZM38.22,80.2l-1,.59L35,82.2a.78.78,0,0,0-.51-.32l.4-3.33a.84.84,0,0,0,.76-.39l2.57,1.37a.75.75,0,0,0-.06.31A.8.8,0,0,0,38.22,80.2Zm14.65-6.6a.61.61,0,0,0-.23.65l-3.78,1.27a.89.89,0,0,0-.72-.58L49,68a.78.78,0,0,0,.4-.09l2.24,3.69Zm-4.59-6.4a.73.73,0,0,0,.62.75l-.85,7a.9.9,0,0,0-1,.93,1.14,1.14,0,0,0,0,.33L39.56,79.5a.77.77,0,0,0-1.32-.06l-2.57-1.36a1,1,0,0,0,.06-.35.78.78,0,0,0-.94-.8L32.62,66.85a.46.46,0,0,0,.34-.47.66.66,0,0,0,0-.15l7.89-3.31a.93.93,0,0,0,1.77-.4,1,1,0,0,0-.06-.36L48.2,59.5a1.09,1.09,0,0,0,1.74.25l4.68,4a.64.64,0,0,0-.1.36.54.54,0,0,0,0,.22L49.7,66.81A.76.76,0,0,0,48.28,67.2ZM11.85,35.6l2.55-.11,3.75-.18a.51.51,0,0,0,.11.29L16.4,37.35l-5,4.7a.61.61,0,0,0-.36-.14V36.44A.81.81,0,0,0,11.85,35.6ZM24,66.62a.75.75,0,0,0-.26-.05l.09-11a1,1,0,0,0,.89-.51L28,56.79a.72.72,0,0,0,0,.22.54.54,0,0,0,.29.51l-.55,1.2ZM18.45,54.51a.65.65,0,0,0-.51-.62l2-10.87a.81.81,0,0,0,.22,0l3.34,10.55a1,1,0,0,0-.69.95Zm-4,2.14-.36-1.9-.32-1.67a.76.76,0,0,0,.48-.34l2.91,1.54a.61.61,0,0,0-.06.28.7.7,0,0,0,.12.4L15,56.82A.63.63,0,0,0,14.44,56.65ZM71,32.7a.45.45,0,0,0,0,.2h0L59.08,34.08a.69.69,0,0,0-.58-.6l.74-5.86a.81.81,0,0,0,.77-.4l5.32,2.64ZM4,48.61l-.66-5.2a.49.49,0,0,0,.18-.08L9,49.15a.48.48,0,0,0-.14.32l-4-.09A.76.76,0,0,0,4,48.61Zm15.41-6.17a.58.58,0,0,0,.24.46L14,51.66a.88.88,0,0,0-.53-.08L11.2,43.07a.58.58,0,0,0,.4-.53ZM9.54,49l1.38-5.9h.19l2.23,8.51a.79.79,0,0,0-.39.26L9.87,49.8a.77.77,0,0,0,.06-.28A.53.53,0,0,0,9.54,49Zm8.31,4.89a.69.69,0,0,0-.67.31l-2.9-1.54a1,1,0,0,0,.06-.32.72.72,0,0,0-.31-.62L19.68,43l.15,0-1.18,6.48Zm2.07-12.13-1.07-6a.55.55,0,0,0,.42-.55.53.53,0,0,0-.35-.52l2.55-7.88a.7.7,0,0,0,.38,0l4.7,10.07a.87.87,0,0,0-.48.82.93.93,0,0,0,1.51.73l3.94,4.4a.83.83,0,0,0-.23.61,1,1,0,0,0,.05.31l-4.21,2a.56.56,0,0,0-1.05.28.52.52,0,0,0,.34.52l-2.29,7a1.22,1.22,0,0,0-.57,0L20.23,43a.6.6,0,0,0,.4-.6A.62.62,0,0,0,19.92,41.75ZM18.6,34.69,15.79,24.56a.64.64,0,0,0,.42-.37l3.38,1.31,1.44.55a.57.57,0,0,0,0,.18.58.58,0,0,0,.39.58L18.84,34.7A.65.65,0,0,0,18.6,34.69ZM15,2.65l7.13,3a.85.85,0,0,0,0,.23.71.71,0,0,0,0,.15l-2.61.71L14.17,8.17a.81.81,0,0,0-.64-.58L14,5.16,14.33,3A.65.65,0,0,0,15,2.65ZM46.57,19,47.2,29A.76.76,0,0,0,47,29l-3.12-5.51-2-3.48a.55.55,0,0,0,.25-.49v-.08l3.92-.82A.52.52,0,0,0,46.57,19Zm3.75,8.61a.48.48,0,0,0-.27.45.52.52,0,0,0,0,.18l-2.22,1a.62.62,0,0,0-.57-.33L46.66,19h.09l2.92,7.06Zm-15-7.14a.69.69,0,0,0,.51,0l3,7.19.84,2.07a.63.63,0,0,0-.38.5l-8.07-1.17s0-.06,0-.09a.9.9,0,0,0-.41-.78l.81-1.39ZM52.71,38.24,51.6,41.19a1.19,1.19,0,0,0-1.19.3L48,39.42l-.68-.58a.88.88,0,0,0,.17-.55v0l4.83-.53A.68.68,0,0,0,52.71,38.24Zm1.38,12.87-2.46-7.78a1,1,0,0,0,.51-.35l7,5.2a.62.62,0,0,0-.07.29.79.79,0,0,0,0,.23l-4.63,2.57A.41.41,0,0,0,54.09,51.11ZM27.36,36.85,30,29.92a.93.93,0,0,0,1.09-.4l7,3.69,2,1.08a.66.66,0,0,0-.05.25s0,.07,0,.1L27.88,37.45A.88.88,0,0,0,27.36,36.85Zm13.79-1.93,4.65,2.93a1,1,0,0,0-.1.44,1.12,1.12,0,0,0,.07.38l-3.7,2L37.2,43.27a.71.71,0,0,0-.3-.27l3.52-7.87A.64.64,0,0,0,41.15,34.92Zm-2.7,18.25L36.74,44.4a.72.72,0,0,0,.56-.73v0L45,42.91l5.19-.49a1,1,0,0,0,.24.58L39,53.35A.74.74,0,0,0,38.45,53.17ZM50.13,42.33,37.29,43.56a1,1,0,0,0,0-.2l4.08-2.2,4.49-2.41a.93.93,0,0,0,1.43.16l3.11,2.65a1.18,1.18,0,0,0-.22.71ZM46.73,30l-5.61,4.15a.62.62,0,0,0-.54-.21l-.48-2.78a.67.67,0,0,0,.55-.7s0,0,0,0l6-.67A.62.62,0,0,0,46.73,30ZM31.1,29.44a.79.79,0,0,0,.06-.22l8.07,1.17v.05a.68.68,0,0,0,.78.71l.2,1.18.28,1.6a.59.59,0,0,0-.39.28l-3.84-2ZM33,43.53l2.86.15a.68.68,0,0,0,.4.66l-2.52,5.78-.26.6-.17,0-1-6.44A.78.78,0,0,0,33,43.53Zm.56,7.22,2.35-5.38.44-1a.82.82,0,0,0,.35,0l1.42,7.29.29,1.49a.63.63,0,0,0-.42.31l-4.22-2.17a.43.43,0,0,0,0-.17A.44.44,0,0,0,33.51,50.75Zm5.57,2.67L45,48l5.46-5a1.21,1.21,0,0,0,1.11.29L54,51.13a.39.39,0,0,0-.25.38v0L39.21,53.71A.65.65,0,0,0,39.08,53.42Zm6.77-15.65-4.66-2.93a.56.56,0,0,0,.07-.3.62.62,0,0,0-.09-.34l5.61-4.15a.67.67,0,0,0,.41.22l-.58,7.13A.89.89,0,0,0,45.85,37.77Zm.79-8.14v0l-2.38.27-3.62.4a.67.67,0,0,0-.55-.57l1.44-9.61a.58.58,0,0,0,.29-.05l5.1,9A.61.61,0,0,0,46.64,29.63ZM40.23,35a.41.41,0,0,0,.11.07L36.82,43a.74.74,0,0,0-1,.62L33,43.44a.85.85,0,0,0-.22-.59L37.41,38Zm1.21-14.9-.76,5L40,29.73a.92.92,0,0,0-.29,0l-2.22-5.42-1.57-3.84a.62.62,0,0,0,.36-.59l1.64-.1L41,19.64A.55.55,0,0,0,41.44,20.13ZM29.69,28.29a.82.82,0,0,0-.3.42l-7-2.29-.13,0a.76.76,0,0,0,0-.15.57.57,0,0,0-.35-.56l2-5.11a.61.61,0,0,0,.44,0L29,27.27ZM14,9.06a.87.87,0,0,0,.23-.62,1.11,1.11,0,0,0,0-.19L22.11,6.1a.71.71,0,0,0,.7.48L24,19.48a.59.59,0,0,0-.26.1l-4.5-4.86ZM22.2,26.47l4.44,1.44,2.72.89a.94.94,0,0,0,.52,1.09l-2.61,6.93a1,1,0,0,0-.63,0L21.93,26.78A.55.55,0,0,0,22.2,26.47ZM27.91,37.7a.78.78,0,0,0,0-.16l4.89-1.13L40,34.73a.68.68,0,0,0,.12.24l-5.5,5.75-2,2.07a.92.92,0,0,0-1.09,0l-3.94-4.4A.93.93,0,0,0,27.91,37.7Zm4.29,6.57,1,6.44a.5.5,0,0,0-.22.13L30.18,48.7l-3.07-2.38A.57.57,0,0,0,27.2,46a.53.53,0,0,0,0-.19l4.21-2A.82.82,0,0,0,32.2,44.27Zm-5.14,2.12,5.83,4.52a.6.6,0,0,0,0,.37L31,52l-6.13,2.2a1,1,0,0,0-.61-.59l2.3-7A.58.58,0,0,0,27.06,46.39ZM24.8,55a1.06,1.06,0,0,0,.09-.45,1.08,1.08,0,0,0,0-.32l8-2.88a.42.42,0,0,0,.09.14l-4.12,5a.61.61,0,0,0-.83.16l-3-1.56Zm4.11,1.58,1.42-1.74,2.7-3.3a.47.47,0,0,0,.65-.14l4.22,2.17a.76.76,0,0,0,0,.27.88.88,0,0,0,0,.17l-5.24,1.65L29,56.8A.5.5,0,0,0,28.91,56.59ZM39.22,53.8l14.54-2.18a.42.42,0,0,0,.14.22l-4.19,6.24a1.1,1.1,0,0,0-1.51.41l-9-4.38a1,1,0,0,0,0-.26Zm10.57,4.33,1.06-1.58L54,51.89a.48.48,0,0,0,.42,0L57.67,56a.85.85,0,0,0-.28.66.91.91,0,0,0,0,.17l-7.23,1.86A1,1,0,0,0,49.79,58.13Zm9.44-10-7-5.19a1.18,1.18,0,0,0,.18-.64,1.15,1.15,0,0,0,0-.19l8-1.71a.73.73,0,0,0,.57.55l-1.28,7A.6.6,0,0,0,59.23,48.1Zm1.17-7.82L52.34,42a1,1,0,0,0-.65-.77l1.1-2.95a.7.7,0,0,0,.87-.43L60.41,40a1.11,1.11,0,0,0,0,.19A.49.49,0,0,0,60.4,40.28Zm-8.11-2.7s0,0,0,0l-1.82.19-3,.34a.86.86,0,0,0-.3-.56l4.47-6a.75.75,0,0,0,.5.12l.73,5.19A.68.68,0,0,0,52.29,37.58Zm-.74-6-4.47,6a.82.82,0,0,0-.38-.13l.51-6.3.07-.84a.62.62,0,0,0,.62-.43l3.39.91a.86.86,0,0,0,0,.16A.77.77,0,0,0,51.55,31.53ZM35.24,20.47l-4.55,7.74a1,1,0,0,0-.93,0l-1-1.49-4.31-6.28a.54.54,0,0,0,.2-.4L35,20A.63.63,0,0,0,35.24,20.47ZM23.58,20.3a.45.45,0,0,0,.24.23l-1.3,3.31-.71,1.8a.61.61,0,0,0-.75.32l-.93-.35L16.24,24.1a1.18,1.18,0,0,0,0-.21.93.93,0,0,0,0-.25l2.49-1.14ZM57.74,56l-3.28-4.14a.38.38,0,0,0,.12-.3.41.41,0,0,0,0-.16l4.63-2.57a.55.55,0,0,0,.33.23L58.35,55.8A1,1,0,0,0,57.74,56Zm5.32-17.08a1,1,0,0,0-.25.7,1,1,0,0,0,0,.18l-.91.2a.78.78,0,0,0-1.05-.52l-2.15-4.6a1.1,1.1,0,0,0,.14-.09l1.88,1.85Zm-7.27-8.52-1.21-.48a.88.88,0,0,0,0-.24.84.84,0,0,0-.06-.33l4.05-2.07a.67.67,0,0,0,.19.22L56.92,30A.79.79,0,0,0,55.79,30.35Zm2.77-3.21L56,28.45l-1.5.77a.79.79,0,0,0-.87-.37l-.78-2.66a.52.52,0,0,0,.35-.4l5.29.93v.1A.79.79,0,0,0,58.56,27.14Zm-5.79-.93.78,2.66a.76.76,0,0,0-.53.76.8.8,0,0,0,1.53.33l1.21.48a.86.86,0,0,0,0,.24.78.78,0,1,0,1.56,0,.76.76,0,0,0-.28-.61l1.86-2.57a1,1,0,0,0,.29.11l-.74,5.86a.7.7,0,0,0-.76.72.71.71,0,0,0,1,.68l2.16,4.6a.73.73,0,0,0-.36.41l-6.74-2.13a.79.79,0,0,0,0-.17.68.68,0,0,0-.76-.7l-.73-5.19a.75.75,0,0,0,.64-.78.77.77,0,0,0-.33-.66.66.66,0,0,0,.36-.62.71.71,0,1,0-1.41,0,.69.69,0,0,0,.25.56.73.73,0,0,0-.42.47l-3.39-.91a.49.49,0,0,0,0-.12.61.61,0,0,0,0-.24l2.22-1a.51.51,0,0,0,.94-.26.48.48,0,0,0-.13-.35l1.39-1.63A.62.62,0,0,0,52.77,26.21ZM35.42,14.86l5.66,4.37a.55.55,0,0,0-.09.32l-4.71.28a.64.64,0,0,0-.7-.58l-.53-4.19A.64.64,0,0,0,35.42,14.86Zm-6-2.38-5.08,7.06a.59.59,0,0,0-.29-.07L22.9,6.57a.75.75,0,0,0,.4-.19l6.05,5.37a.53.53,0,0,0-.09.32A.51.51,0,0,0,29.44,12.48ZM13.51,9.3a1,1,0,0,0,.4-.18l9.74,10.52a.59.59,0,0,0-.13.39,1.11,1.11,0,0,0,0,.19L17.48,23l-1.29.58a.7.7,0,0,0-.69-.37L13.84,11.62Zm4.81,26.37a.58.58,0,0,0,.44.13l1.07,6a.61.61,0,0,0-.48.59l-7.75.1a.65.65,0,0,0-.12-.33l3.83-3.61Zm-7.49,7.4L9.46,49a.61.61,0,0,0-.44.11l-2.82-3L3.54,43.27a.41.41,0,0,0,.1-.28l6.78-.41A.55.55,0,0,0,10.83,43.07ZM7.89,52.39A.57.57,0,0,0,7.68,52l.73-1,.67-1a.58.58,0,0,0,.74-.13l3.09,2.07a.8.8,0,0,0-.1.36l-2.5.05Zm20.88,5.14a.53.53,0,0,0,.31-.52s0-.08,0-.12l8.82-2.79a.68.68,0,0,0,.3.36L32.65,65.91a.62.62,0,0,0-.33,0l-1.15-2.71Zm4,8.42,3.72-7.69,1.83-3.77a.77.77,0,0,0,.45,0l1.71,4.71.89,2.43a.86.86,0,0,0-.57.86,1,1,0,0,0,.05.31l-7.9,3.31A.41.41,0,0,0,32.73,66Zm8.68-4.32-2.19-6-.41-1.12a.63.63,0,0,0,.33-.29l1,.47,8,3.91a1.3,1.3,0,0,0,0,.84l-5.65,2.66A.92.92,0,0,0,41.41,61.63ZM59.84,48h-.05l.19-1,1.09-6a.75.75,0,0,0,.87-.77.49.49,0,0,0,0-.12l.88-.19h0a.94.94,0,0,0,.52.66l-1.31,2.78Zm-7.6-22.72a.56.56,0,0,0-.16.42.55.55,0,0,0,.16.41l-1.39,1.63a.55.55,0,0,0-.45-.07L46.83,19l.07,0,3.32,3.92ZM35.18,19.4a.64.64,0,0,0-.22.47l-1.3,0-9,.09a.56.56,0,0,0-.19-.38l3.38-4.72,1.69-2.35a.61.61,0,0,0,.56,0l1.56,2.09ZM14.24,3l-.8,4.59a.88.88,0,0,0-.86.41L10.77,7a.81.81,0,0,0,.07-.33.69.69,0,0,0-.19-.51L14,2.85A.56.56,0,0,0,14.24,3ZM1.36,45.85,3,43.37a.59.59,0,0,0,.22.05l.07.55.59,4.65a.82.82,0,0,0-.39.18l-2-2a.66.66,0,0,0,.15-.43A.61.61,0,0,0,1.36,45.85ZM4.8,49.47l4,.09A.51.51,0,0,0,9,50l-1.41,2a.67.67,0,0,0-.75.08L4.63,49.92A.7.7,0,0,0,4.8,49.47ZM16.9,64.69a.64.64,0,0,0-.18-.06l1-9.39a.66.66,0,0,0,.71-.64h4.34a1,1,0,0,0,.41.82l-2.89,4.26ZM55.28,63.6a.61.61,0,0,0-.6.14L50,59.68a1.1,1.1,0,0,0,.21-.68.82.82,0,0,0,0-.22l7.23-1.86a.78.78,0,0,0,.45.53l-.43,1Zm10.1-12.1a1.06,1.06,0,0,0-.06.37.88.88,0,0,0,.09.41L59,56.17a.85.85,0,0,0-.54-.35l.93-5.42L59.6,49a.55.55,0,0,0,.52-.25l4.43,2.3ZM63.13,38.8l-4.21-4.13a.73.73,0,0,0,.17-.48v0L71,33a.43.43,0,0,0,.09.23l-6.48,5.62A1.11,1.11,0,0,0,63.13,38.8Zm5.48-15s0,0,0,.05a.94.94,0,0,0,1.13.95l.77,3.5.89,4-.08,0L69,28.51,66.51,24.2a.73.73,0,0,0,.33-.54Zm-3.24.09a.82.82,0,0,0,1.06.32l1.07,1.84,3.73,6.36a.52.52,0,0,0-.16.17L60,27.14a.83.83,0,0,0,.06-.32,1,1,0,0,0-.05-.31ZM59,26.07a.73.73,0,0,0-.47.56l-5-.88-.26-.05a.43.43,0,0,1,0-.05.56.56,0,0,0-.35-.54l2.55-7.58a1.14,1.14,0,0,0,.52,0Zm-4.21-9.2a.86.86,0,0,0,.56.63l-2.55,7.58a.68.68,0,0,0-.48.09l-1.63-1.91L47,18.89a.53.53,0,0,0,.15-.38s0-.05,0-.07Zm-8.59,1.27a.54.54,0,0,0-.13.37v.06l-3.93.82a.57.57,0,0,0-.71-.4l-3.14-9a1,1,0,0,0,.23-.13ZM37.56,9.92a1,1,0,0,0,.63.06l3.14,9a.66.66,0,0,0-.2.14l-5.65-4.38a.7.7,0,0,0,.1-.37.63.63,0,0,0-.29-.56ZM34.3,14.17a.61.61,0,0,0,0,.24.64.64,0,0,0,.7.66l0,.28.49,3.91a.63.63,0,0,0-.23.08l-2.84-3.8-2.27-3.07a.4.4,0,0,0,.11-.14Zm-4.62-2.62a.57.57,0,0,0-.27.13L26.89,9.44,23.36,6.31a.74.74,0,0,0,.14-.44l4.94-.28a.51.51,0,0,0,.55.46ZM17,1.22a.86.86,0,0,0,1.31.24l3.91,3.93a.64.64,0,0,0-.11.16L15,2.56a.66.66,0,0,0,0-.21.78.78,0,0,0,0-.22Zm-7,6.23a.76.76,0,0,0,.67-.36l1.81,1a1.12,1.12,0,0,0-.07.38.82.82,0,0,0,.55.82L9.27,20.34l-.14,0ZM9.87,21.5a1,1,0,0,0,0-.3.85.85,0,0,0-.56-.84L13.1,9.28a.87.87,0,0,0,.32,0l2,13.88a.68.68,0,0,0-.5.39ZM15,24.36a.74.74,0,0,0,.69.23l2.81,10.12a.58.58,0,0,0-.25.18l-4.78-3.18L9.63,29.16a.68.68,0,0,0,.09-.35.67.67,0,0,0-.11-.39Zm-5.75,5.1a.69.69,0,0,0,.33-.23L18.21,35a.51.51,0,0,0-.06.25l-2,.1-4.3.19a.83.83,0,0,0-1-.74Zm1.32,12.61a.57.57,0,0,0-.16.42l-2,.12-4.82.29a.49.49,0,0,0-.06-.17l4-3a.82.82,0,0,0,1.09.12ZM7.45,39.41a.69.69,0,0,0,.1.25L3.71,42.52l-.18.14a.45.45,0,0,0-.21-.12l.35-1.73A.75.75,0,0,0,4.55,40a.28.28,0,0,0,0-.09ZM3.5,40.77l.08,0-.34,1.73a.44.44,0,0,0-.5.45.41.41,0,0,0,.17.35L1.29,45.8h0Zm4.32,12a.61.61,0,0,0,.07-.28l4.92-.09a.74.74,0,0,0,.86.7l.68,3.57a.56.56,0,0,0-.33.21Zm6.89,5.07a.59.59,0,0,0,.4-.58.66.66,0,0,0-.1-.36l1.53-1.26.73-.6a.64.64,0,0,0,.38.2l-1,9.39H16.5Zm2.47,7.51a.57.57,0,0,0,0-.13.56.56,0,0,0-.21-.47l3.28-4.83,3-4.44a1.11,1.11,0,0,0,.5.14l-.05,5.87-.05,5.09a.83.83,0,0,0-.78.56Zm7.39,1.94a.8.8,0,0,0-.44-.62l4.18-9.1a.62.62,0,0,0,.38,0l3.54,8.38a.47.47,0,0,0-.25.44h0Zm7.54-.55a.51.51,0,0,0,.42.14L34.7,76.94a.8.8,0,0,0-.51.41L28.9,74.93l-3.54-1.62a1.08,1.08,0,0,0,.06-.38,1,1,0,0,0-.18-.6Zm-7.75,7.2a1,1,0,0,0,1-.53l8.84,4a.94.94,0,0,0,0,.3v.07l-9.73,1.32a.62.62,0,0,0-.54-.53Zm-6.79,5.71a.86.86,0,0,0,.06-.23l5.43-.1a.66.66,0,0,0,1,.54l3.47,5.74a.72.72,0,0,0-.25.24Zm11.28,6.22a1,1,0,0,0-1.27-.32l-3.47-5.73a.58.58,0,0,0,.24-.31l9.23,3a1,1,0,0,0,0,.19.8.8,0,0,0,.08.36Zm6-2.62a.68.68,0,0,0,.24-.42l7.58,1.3v0a.51.51,0,0,0,.26.47l-2.48,5.29A.48.48,0,0,0,40,90Zm5.9,7a.43.43,0,0,0-.22-.31L43,84.67a.54.54,0,0,0,.67-.24l9.44,4.1a.64.64,0,0,0,0,.2v0Zm13.49-1.84a.63.63,0,0,0-.83-.24l-2.9-4.55a.45.45,0,0,0,.17-.25l6.11,1.43,3,.69v.06a.88.88,0,0,0,0,.17Zm10.41-9.31v0a.56.56,0,0,0,.19.45l-4.36,5.59a.43.43,0,0,0-.25-.07l-.57-5.69a.82.82,0,0,0,.74-.73Zm-5.87-1.05a.9.9,0,0,0-.12.48,1,1,0,0,0,.06.36l-1.56.78L50.64,83a.5.5,0,0,0-.24-.19l1.36-4.09,1.32-4a.64.64,0,0,0,.63-.2ZM53.3,73.5a.6.6,0,0,0-.35,0l-.45-.73-3-5a.71.71,0,0,0,.32-.63.85.85,0,0,0,0-.3l4.86-2.44a.52.52,0,0,0,.35.26Zm2.34-9.58a.55.55,0,0,0-.27-.29l.73-1.74L58,57.48a1,1,0,0,0,.83-.11l1.48,1.79L61.75,61a.8.8,0,0,0-.26.63.88.88,0,0,0,0,.24Zm7-3.15a.9.9,0,0,0-.78.12l-2.89-3.48-.08-.1a.83.83,0,0,0,.26-.65.88.88,0,0,0-.09-.41l6.43-3.89a.78.78,0,0,0,.37.3ZM66.47,51a.9.9,0,0,0-1,.38L60.19,48.7h0a.54.54,0,0,0,0-.22.79.79,0,0,0,0-.23l9-5a.81.81,0,0,0,.39.34Zm2.62-8.68a.87.87,0,0,0-.07.37,1,1,0,0,0,.08.41l-9,5a.42.42,0,0,0-.18-.17l3.51-7.45a1.07,1.07,0,0,0,1.32-.44Zm6.47-9.82a.5.5,0,0,0-.66.42l-2.81-.09a.53.53,0,0,0-.07-.26l1.69-1.26L76.87,29a.62.62,0,0,0,.2.15Z"/></g></g></g></g></svg>